<?xml version="1.0" encoding="iso-8859-1"?>
<!-- Generator: Adobe Illustrator 19.0.0, SVG Export Plug-In . SVG Version: 6.00 Build 0)  -->
<svg xmlns="http://www.w3.org/2000/svg" xmlns:xlink="http://www.w3.org/1999/xlink" version="1.1" id="Capa_1" x="0px" y="0px" viewBox="0 0 508 508" style="enable-background:new 0 0 508 508;" xml:space="preserve">
<g>
	<g>
		<path fill="#DCEDFF" d="M434.3,389.5V324h57.4V94.5H313.5l-9.5,29.9L21.9,53L2.6,114.7l95.8,36.1v67.6c-15.1,3.2-32.9,23.9-20.5,47.2L6,307.5H0    V455h213V307.5h-6l-71.8-41.9c2.5-4.6,4.1-9.8,4.1-15.5h-16.4c0,2.6-0.7,5-1.8,7.2l-14.6-8.5l-14.6,8.5    c-6.7-13.3,5.6-23.6,14.6-23.6h8.2V157l160,60.4l-12.2,38.5l-0.4,68h57.4v65.5h-73.7V455H508v-65.5H434.3z M196.7,438.6h-0.1H16.4    V323.9h180.3V438.6z M123.8,277.9l50.8,29.6H38.5l50.8-29.6C105.1,287.6,118.8,281,123.8,277.9z M22.9,104.9l10-32.2l37.8,9.6    l-36.4,26.9L22.9,104.9z M52.5,116l26.4-19.5l18,36.3L52.5,116z M113.1,128.6L92.9,87.9l66.5,16.8L113.1,128.6z M122.3,142.3    l49-25.3l28.3,54.5L122.3,142.3z M186.9,111.7l87.8,22.2l-59.9,31.4L186.9,111.7z M222.1,180l76.4-40.1l0.6,0.1l-19.5,61.7    L222.1,180z M278.6,307.5v-47.9l47-148.7h149.7v196.6H278.6z M417.8,323.9v65.5h-81.9v-65.5H417.8z M491.6,438.6H262.2v-32.8    h229.4V438.6z"/>
	</g>
</g>
<g>
	<g>
		<path fill="#DCEDFF" d="M346.1,135.5l-37.5,131.1h142V135.5H346.1z M434.3,250.2H330.4l28.1-98.3h75.8V250.2z"/>
	</g>
</g>
<g>
	<g>
		<rect x="98.3" y="373.1" width="16.4" height="16.4"/>
	</g>
</g>
<g>
	<g>
		<rect x="131.1" y="373.1" width="16.4" height="16.4"/>
	</g>
</g>
<g>
	<g>
		<rect x="65.5" y="373.1" width="16.4" height="16.4"/>
	</g>
</g>
<g>
</g>
<g>
</g>
<g>
</g>
<g>
</g>
<g>
</g>
<g>
</g>
<g>
</g>
<g>
</g>
<g>
</g>
<g>
</g>
<g>
</g>
<g>
</g>
<g>
</g>
<g>
</g>
<g>
</g>
</svg>
