<?xml version="1.0" encoding="iso-8859-1"?>
<!-- Generator: Adobe Illustrator 19.0.0, SVG Export Plug-In . SVG Version: 6.00 Build 0)  -->
<svg xmlns="http://www.w3.org/2000/svg" xmlns:xlink="http://www.w3.org/1999/xlink" version="1.1" id="Capa_1" x="0px" y="0px" viewBox="0 0 508 508" style="enable-background:new 0 0 508 508;" xml:space="preserve">
<g>
	<g>
		<path fill="#DCEDFF" d="M417.85,417.9h-32.8c-22.6,0-41,18.4-41,41v8.2c0,13.6-11,24.6-24.6,24.6h-57.4c-13.6,0-24.6-11-24.6-24.6v-32.8h24.6    v-32.8h8.2c58.7,0,106.5-47.8,106.5-106.5v-65.5c18.1,0,32.8-14.7,32.8-32.8c0-18.1-14.7-32.8-32.8-32.8h-16.4V41    c0-22.6-18.4-41-41-41c-22.6,0-41,18.4-41,41v122.9h-98.3V41c0-22.6-18.4-41-41-41c-22.6,0-41,18.4-41,41v122.9h-16.2    c-18.1,0-32.8,14.7-32.8,32.8c0,18.1,14.7,32.8,32.8,32.8V295c0,58.7,47.8,106.5,106.5,106.5h8.2v32.8h24.6V467    c0,22.6,18.4,41,41,41h57.4c22.6,0,41-18.4,41-41v-8.2c0-13.6,11-24.6,24.6-24.6h32.8c13.6,0,24.6,11,24.6,24.6V508h16.4v-49.2    C458.75,436.3,440.45,417.9,417.85,417.9z M294.95,41c0-13.6,11-24.6,24.6-24.6c13.6,0,24.6,11,24.6,24.6v122.9h-49.2V41z     M114.65,41c0-13.6,11-24.6,24.6-24.6c13.6,0,24.6,11,24.6,24.6v122.9h-49.2V41z M65.45,196.6c0-9,7.4-16.4,16.4-16.4h16.4h262.2    h16.4c9,0,16.4,7.3,16.4,16.4c0,9-7.4,16.4-16.4,16.4h-295C72.85,213,65.45,205.7,65.45,196.6z M188.45,385.1    c-49.7,0-90.1-40.4-90.1-90.1v-65.5h262.2V295c0,49.7-40.4,90.1-90.1,90.1H188.45z M212.95,417.9v-16.4h32.8v16.4H212.95z"/>
	</g>
</g>
<g>
	<g>
		<rect x="221.15" y="262.2" width="16.4" height="16.4"/>
	</g>
</g>
<g>
	<g>
		<rect x="253.95" y="262.2" width="16.4" height="16.4"/>
	</g>
</g>
<g>
	<g>
		<rect x="188.45" y="262.2" width="16.4" height="16.4"/>
	</g>
</g>
<g>
</g>
<g>
</g>
<g>
</g>
<g>
</g>
<g>
</g>
<g>
</g>
<g>
</g>
<g>
</g>
<g>
</g>
<g>
</g>
<g>
</g>
<g>
</g>
<g>
</g>
<g>
</g>
<g>
</g>
</svg>
