<?xml version="1.0" encoding="UTF-8" standalone="no"?><!DOCTYPE svg PUBLIC "-//W3C//DTD SVG 1.1//EN" "http://www.w3.org/Graphics/SVG/1.1/DTD/svg11.dtd"><svg width="100%" height="100%" viewBox="0 0 508 508" version="1.1" xmlns="http://www.w3.org/2000/svg" xmlns:xlink="http://www.w3.org/1999/xlink" xml:space="preserve" style="fill-rule:evenodd;clip-rule:evenodd;stroke-linejoin:round;stroke-miterlimit:1.41421;"><path fill="#DCEDFF" d="M113.391,251.754c-34.986,39.887 -33.35,100.919 4.793,138.865c38.143,37.946 99.182,39.267 138.942,4.02l13.611,13.541l26.863,-27.002l-17.068,-16.98c32.691,-38.239 53.838,-116.354 16.573,-153.427c-37.265,-37.073 -115.27,-15.522 -153.394,17.421l-17.068,-16.981l-26.863,27.002l13.611,13.541l0,0Zm13.802,129.809c-5.982,-5.841 -10.816,-12.398 -14.776,-19.394l48.333,-22.46c3.773,-1.706 10.078,2.164 8.34,7.643l-22.317,48.886c-7.017,-3.923 -13.598,-8.723 -19.58,-14.675Zm161.012,-161.846c31.118,30.957 12.632,100.69 -16.674,135.526l-118.764,-118.152c34.629,-29.431 104.32,-48.332 135.438,-17.374Zm-161.516,9.34l152.956,152.167l-8.954,9.001l-13.501,-13.431c0,0 -38.198,46.847 -98.962,24.834l22.535,-49.435c5.639,-20.816 -14.362,-28.92 -24.97,-24.185l-48.825,22.624c-21.564,-61.965 24.268,-99.143 24.268,-99.143l-13.501,-13.432l8.954,-9Z" style="fill-rule:nonzero;"/><path d="M239.115,76.313c-6.654,30.289 -4.22,61.321 7.678,90.084l11.702,-4.848c-10.907,-26.247 -13.334,-54.761 -7.055,-82.367c5.196,-22.785 16.144,-43.779 31.81,-61.063l206.631,205.565c-17.203,15.755 -38.14,26.812 -60.899,32.126c-27.572,6.422 -56.098,4.141 -82.402,-6.629l-4.787,11.727c28.77,11.804 59.812,13.53 90.123,7.211c44.753,-9.312 76.084,-44.427 76.084,-44.427l-224.851,-223.692c0,0 -33.7,29.154 -44.034,76.313Z" style="fill-rule:nonzero;"/><path d="M369.786,143.289l9,8.955l8.954,-9.001l-9,-8.954l-8.954,9Z"/><path d="M351.877,161.291l9.001,8.954l8.954,-9.001l-9.001,-8.954l-8.954,9.001Z"/><path d="M333.969,179.292l9,8.954l8.954,-9l-9,-8.955l-8.954,9.001Z"/><path d="M-4.888,462.189l0,15.093l365.743,0l0,-15.093l-188.764,0l-176.979,0Z"/></svg>
