<?xml version="1.0" encoding="iso-8859-1"?>
<!-- Generator: Adobe Illustrator 19.0.0, SVG Export Plug-In . SVG Version: 6.00 Build 0)  -->
<svg version="1.1" id="Layer_1" xmlns="http://www.w3.org/2000/svg" xmlns:xlink="http://www.w3.org/1999/xlink" x="0px" y="0px"
	 viewBox="0 0 511.996 511.996" style="enable-background:new 0 0 511.996 511.996;" xml:space="preserve">
<g>
	<g>
		<g>
			<path fill="#DCEDFF" d="M290.199,312.467c-4.155-4.188-10.905-4.188-15.077,0c-4.164,4.156-4.164,10.906,0,15.078
				c4.172,4.172,10.922,4.172,15.077,0C294.371,323.373,294.371,316.623,290.199,312.467z"/>
			<path d="M410.668,0H154.67c-5.891,0-10.664,4.773-10.664,10.664v3.25L90.741,478.777c-0.672,5.859,3.531,11.156,9.383,11.812
				c0.414,0.062,0.82,0.078,1.227,0.078c5.344,0,9.961-4.016,10.586-9.453l6.25-54.562h25.82v8.438c0,0.016,0,0.016,0,0.016v66.234
				c0,5.875,4.773,10.656,10.664,10.656s10.664-4.781,10.664-10.656v-53.344h234.662v53.344c0,5.875,4.781,10.656,10.672,10.656
				s10.656-4.781,10.656-10.656v-64v-2.234V10.664C421.324,4.773,416.559,0,410.668,0z M144.006,405.34h-23.375l23.375-204.021
				V405.34z M399.996,426.652H165.334V21.336h234.662V426.652z"/>
			<path d="M240.005,106.664h85.319c17.656,0,32-14.352,32-32c0-17.64-14.344-32-32-32h-85.319c-17.648,0-32,14.359-32,32
				C208.005,92.312,222.357,106.664,240.005,106.664z M240.005,63.999h85.319c5.891,0,10.672,4.789,10.672,10.664
				c0,5.883-4.781,10.672-10.672,10.672h-85.319c-5.883,0-10.671-4.789-10.671-10.672C229.333,68.789,234.122,63.999,240.005,63.999
				z"/>
			<path d="M197.333,362.655h170.663c3.609,0,6.984-1.812,8.938-4.844c1.969-3.031,2.281-6.844,0.812-10.141l-85.328-192.007
				c-1.719-3.852-5.546-6.328-9.749-6.328c-4.219,0-8.047,2.477-9.75,6.328L187.591,347.67c-1.469,3.297-1.164,7.109,0.797,10.141
				C190.357,360.842,193.724,362.655,197.333,362.655z M282.668,186.264l68.921,155.078H213.747L282.668,186.264z"/>
			<path d="M282.669,298.654c5.89,0,10.655-4.766,10.655-10.656v-42.664c0-5.891-4.766-10.672-10.655-10.672
				c-5.891,0-10.672,4.781-10.672,10.672v42.664C271.997,293.889,276.778,298.654,282.669,298.654z"/>
		</g>
	</g>
</g>
<g>
</g>
<g>
</g>
<g>
</g>
<g>
</g>
<g>
</g>
<g>
</g>
<g>
</g>
<g>
</g>
<g>
</g>
<g>
</g>
<g>
</g>
<g>
</g>
<g>
</g>
<g>
</g>
<g>
</g>
</svg>
