<?xml version="1.0" encoding="iso-8859-1"?>
<!-- Generator: Adobe Illustrator 19.0.0, SVG Export Plug-In . SVG Version: 6.00 Build 0)  -->
<svg version="1.1" id="Capa_1" xmlns="http://www.w3.org/2000/svg" xmlns:xlink="http://www.w3.org/1999/xlink" x="0px" y="0px"
	 viewBox="0 0 512.001 512.001" style="enable-background:new 0 0 512.001 512.001;" xml:space="preserve">
<g>
	<g>
		<path fill="#DCEDFF" d="M507.37,54.032c-6.173-6.174-16.184-6.174-22.358,0c-6.164,6.164-16.194,6.165-22.358,0
			c-18.537-18.537-48.537-18.538-67.075,0l-11.18,11.18l-11.18-11.18c-18.491-18.492-48.583-18.493-67.075,0l-22.366,22.365
			c-74.415-30.525-163.242-15.627-223.58,44.71C21.378,159.927,0,211.54,0,266.438S21.378,372.95,60.198,411.77
			c80.134,80.134,210.524,80.137,290.661,0c60.338-60.338,75.235-149.164,44.71-223.58l22.365-22.365
			c18.538-18.537,18.539-48.539,0-67.076L406.755,87.57l11.18-11.18c6.18-6.179,16.179-6.18,22.359,0
			c18.492,18.493,48.584,18.492,67.075,0C513.544,70.216,513.544,60.206,507.37,54.032z M328.502,389.411
			c-67.808,67.808-178.138,67.807-245.945,0C49.71,356.564,31.62,312.891,31.62,266.438s18.09-90.125,50.936-122.973
			c67.806-67.806,178.136-67.809,245.945,0C396.308,211.273,396.308,321.604,328.502,389.411z M395.577,143.467l-15.092,15.092
			c-8.216-13.325-18.084-25.91-29.625-37.451c-11.54-11.54-24.127-21.409-37.451-29.625l15.092-15.092
			c6.164-6.164,16.194-6.165,22.358,0l44.717,44.718C401.756,127.288,401.756,137.287,395.577,143.467z"/>
	</g>
</g>
<g>
</g>
<g>
</g>
<g>
</g>
<g>
</g>
<g>
</g>
<g>
</g>
<g>
</g>
<g>
</g>
<g>
</g>
<g>
</g>
<g>
</g>
<g>
</g>
<g>
</g>
<g>
</g>
<g>
</g>
</svg>
