<?xml version="1.0" encoding="iso-8859-1"?>
<!-- Generator: Adobe Illustrator 19.0.0, SVG Export Plug-In . SVG Version: 6.00 Build 0)  -->
<svg version="1.1" id="Layer_1" xmlns="http://www.w3.org/2000/svg" xmlns:xlink="http://www.w3.org/1999/xlink" x="0px" y="0px"
	 viewBox="0 0 512 512" style="enable-background:new 0 0 512 512;" xml:space="preserve">
<g>
	<g>
		<path fill="#DCEDFF" d="M458.672,170.664c5.875,0,10.656-4.773,10.656-10.664s-4.781-10.664-10.656-10.664h-10.688v-128h10.688
			c5.875,0,10.656-4.781,10.656-10.672S464.547,0,458.672,0H53.328c-5.906,0-10.656,4.773-10.656,10.664s4.75,10.672,10.656,10.672
			h10.656v128H53.328c-5.906,0-10.656,4.773-10.656,10.664s4.75,10.664,10.656,10.664h10.656v170.672H53.328
			c-5.906,0-10.656,4.773-10.656,10.664s4.75,10.664,10.656,10.664h10.656v128H53.328c-5.906,0-10.656,4.781-10.656,10.672
			S47.422,512,53.328,512h405.344c5.875,0,10.656-4.773,10.656-10.664s-4.781-10.672-10.656-10.672h-10.688v-128h10.688
			c5.875,0,10.656-4.773,10.656-10.664s-4.781-10.664-10.656-10.664h-10.688V170.664H458.672z M85.328,170.664h51.375
			c-26.344,29.375-40.75,66.922-40.75,106.688c0,22.383,4.563,44.063,13.25,63.984H85.328V170.664z M255.953,138.68
			c76.438,0,138.656,62.211,138.656,138.672S332.39,416.016,255.953,416.016c-76.469,0-138.688-62.203-138.688-138.664
			S179.484,138.68,255.953,138.68z M426.672,490.664H85.328v-128h35.188c6.313,9.961,13.75,19.289,22.281,27.82
			c30.219,30.227,70.406,46.867,113.156,46.867c42.719,0,82.906-16.641,113.125-46.867c8.531-8.531,15.969-17.859,22.281-27.82
			h35.313V490.664z M426.672,341.336h-24c8.688-19.922,13.281-41.602,13.281-63.984c0-39.766-14.438-77.313-40.781-106.688h51.5
			V341.336z M426.672,149.336h-74.719c-27.563-20.75-60.906-31.984-96-31.984c-35.125,0-68.469,11.234-96.031,31.984H85.328v-128
			h341.344V149.336z"/>
	</g>
</g>
<g>
	<g>
		<path d="M377.109,301.554c-0.844-4.891-2.25-9.664-4.125-14.195c-0.031-0.102-0.094-0.195-0.125-0.289
			c-0.156-0.344-0.281-0.688-0.438-1.023c-0.063-0.141-0.125-0.258-0.188-0.383l-0.063-0.18c-0.125-0.25-0.219-0.492-0.344-0.734
			c-0.094-0.195-0.188-0.383-0.281-0.57l-0.063-0.141c-0.094-0.195-0.188-0.391-0.281-0.586v-0.008v-0.016
			c-0.125-0.258-0.281-0.508-0.406-0.758l-0.094-0.211l-0.156-0.305v-0.016l-0.031-0.016c-0.063-0.172-0.156-0.344-0.25-0.508
			l-0.125-0.203l-0.094-0.164c-0.063-0.141-0.125-0.281-0.219-0.422c-0.094-0.188-0.219-0.375-0.313-0.57l-0.063-0.102l-0.125-0.211
			c-0.063-0.141-0.156-0.273-0.219-0.414c-0.125-0.18-0.219-0.352-0.313-0.523l-0.063-0.086l-0.031-0.063
			c-0.125-0.195-0.25-0.406-0.375-0.602c-0.063-0.109-0.125-0.234-0.219-0.352l-0.094-0.141c-0.156-0.25-0.313-0.5-0.469-0.742
			v-0.016v-0.023c-0.094-0.125-0.188-0.242-0.25-0.367c-0.188-0.281-0.375-0.563-0.563-0.844l-0.125-0.203l-0.063-0.063
			c-0.188-0.305-0.406-0.617-0.625-0.93c-0.031-0.023-0.031-0.047-0.063-0.07l-0.031-0.031v-0.008
			c-3.313-4.641-7.219-8.852-11.594-12.523c-11.063-9.211-24.844-14.586-39.094-15.32c5.406-10.586,7.875-22.539,7.094-34.586
			c-0.531-7.859-2.406-15.477-5.594-22.633c-3.313-7.414-7.906-14.109-13.688-19.898h-0.031v-0.023
			c-2.031-2-4.688-3.102-7.531-3.102s-5.531,1.109-7.531,3.125c-2.031,2.016-3.125,4.695-3.125,7.539
			c0,2.852,1.094,5.531,3.125,7.547c8.5,8.508,13.188,19.82,13.188,31.852c0,7.047-1.594,13.859-4.656,20.023
			c-4.344-4.039-9.25-7.445-14.563-10.016c-8.094-3.945-16.781-5.938-25.844-5.938c-9.031,0-17.719,1.992-25.813,5.938
			c-2.281,1.094-4.438,2.352-6.563,3.742l-0.031-0.039l-0.156,0.102l0.031,0.047c-0.813,0.539-1.625,1.094-2.406,1.672l-0.031-0.031
			l-0.094,0.063l-0.188,0.141l0.031,0.031c-0.344,0.25-0.656,0.508-1,0.766l-0.031-0.039l-0.094,0.07
			c-0.063,0.063-0.156,0.125-0.25,0.195l0.031,0.039c-0.281,0.234-0.594,0.469-0.875,0.719l-0.031-0.039l-0.094,0.078
			c-0.094,0.078-0.188,0.156-0.281,0.234l0.031,0.039c-0.281,0.234-0.563,0.453-0.844,0.695l-0.031-0.031v0.008v0.008l-0.086,0.08
			c-0.094,0.086-0.188,0.164-0.281,0.242l0.031,0.031c-0.281,0.25-0.563,0.5-0.844,0.758L216.078,236l-0.063,0.055l-0.094,0.094
			c-0.094,0.07-0.156,0.148-0.25,0.219l0.031,0.031c-0.031,0.023-0.063,0.047-0.094,0.07c-3.063-6.164-4.656-12.977-4.656-20.023
			c0-12.031,4.688-23.344,13.188-31.852c4.156-4.156,4.156-10.93,0-15.086c-2-2.016-4.688-3.125-7.531-3.125
			s-5.531,1.109-7.531,3.125c-5.813,5.789-10.406,12.484-13.719,19.898c-3.188,7.164-5.063,14.773-5.594,22.633
			c-0.781,12.047,1.688,23.992,7.094,34.586c-14.25,0.727-28.031,6.102-39.094,15.32c-4.375,3.641-8.25,7.828-11.563,12.438
			l-0.031,0.063l-0.094,0.141c-0.219,0.273-0.406,0.563-0.594,0.852l-0.063,0.102c-0.063,0.086-0.125,0.18-0.188,0.273
			c-0.156,0.227-0.344,0.477-0.5,0.727l-0.25,0.367L144.453,277l-0.031,0.023l-0.031,0.031c-0.125,0.219-0.25,0.43-0.406,0.641
			l-0.094,0.148c-0.063,0.141-0.156,0.281-0.25,0.43v0.016l-0.031,0.023c-0.094,0.18-0.219,0.367-0.313,0.547
			c-0.156,0.227-0.281,0.461-0.438,0.703c-0.063,0.133-0.156,0.289-0.25,0.445l-0.031,0.094c-0.156,0.234-0.281,0.484-0.438,0.734
			v0.016v0.016l-0.25,0.453c-0.156,0.266-0.281,0.539-0.438,0.813v0.023l-0.031,0.023l-0.094,0.156l-0.094,0.219l-0.031,0.031v0.031
			l-0.063,0.094c-0.125,0.242-0.25,0.484-0.344,0.727c-0.063,0.125-0.125,0.227-0.188,0.336l-0.063,0.156l-0.031,0.086
			c-0.125,0.242-0.25,0.492-0.375,0.742c-0.063,0.18-0.156,0.375-0.25,0.563l-0.031,0.086v0.016
			c-0.094,0.203-0.188,0.406-0.281,0.602v0.016l-0.031,0.023c-0.125,0.32-0.281,0.641-0.406,0.969v0.023l-0.031,0.016l-0.031,0.086
			l-0.063,0.18c-1.906,4.547-3.281,9.328-4.156,14.219c-0.469,2.813,0.156,5.641,1.813,7.969c1.625,2.328,4.063,3.883,6.875,4.367
			c0.625,0.109,1.25,0.164,1.844,0.164c5.188,0,9.594-3.719,10.5-8.844c2.063-11.853,8.626-22.196,18.469-29.118
			c7.031-4.969,15.188-7.773,23.688-8.172c-0.781,3.844-1.156,7.758-1.156,11.711c0,7.172,1.281,14.195,3.781,20.859
			c2.438,6.438,5.938,12.359,10.438,17.609c7.375,8.594,17.031,14.859,27.75,18.109c-3.188,5.313-7.5,9.922-12.656,13.563
			c-7.656,5.375-16.563,8.219-25.813,8.219c-2.625,0-5.25-0.234-7.844-0.68c-0.625-0.109-1.219-0.164-1.844-0.164
			c-5.188,0-9.594,3.719-10.5,8.844c-0.469,2.813,0.156,5.641,1.813,7.969c1.625,2.328,4.063,3.883,6.875,4.367
			c3.781,0.656,7.625,0.992,11.438,0.992c13.063,0,25.719-3.828,36.625-11.07c7.656-5.086,14.125-11.617,19.031-19.211
			c4.938,7.594,11.375,14.125,19.031,19.211c10.938,7.242,23.594,11.07,36.625,11.07c3.813,0,7.656-0.336,11.438-0.992
			c2.813-0.484,5.25-2.039,6.906-4.367c1.625-2.328,2.281-5.156,1.781-7.969c-0.875-5.125-5.313-8.844-10.5-8.844
			c-0.594,0-1.219,0.055-1.813,0.156c-2.625,0.453-5.25,0.688-7.844,0.688c-9.25,0-18.188-2.844-25.813-8.219
			c-5.188-3.641-9.469-8.25-12.688-13.563c10.719-3.242,20.375-9.508,27.781-18.102c4.5-5.242,8-11.172,10.438-17.609
			c2.5-6.664,3.781-13.688,3.781-20.867c0-3.953-0.375-7.875-1.156-11.711c8.469,0.406,16.625,3.211,23.688,8.172
			c9.844,6.922,16.375,17.258,18.438,29.117c0.906,5.125,5.313,8.844,10.531,8.844c0.594,0,1.219-0.055,1.813-0.156
			c2.813-0.492,5.25-2.047,6.906-4.375C376.953,307.195,377.609,304.367,377.109,301.554z M245.328,312.922v0.156
			c0,0.93-0.031,1.852-0.094,2.781c-2.063-0.602-4.031-1.383-5.969-2.328c-0.094-0.055-0.219-0.125-0.344-0.18l-0.25-0.148
			l-0.063-0.023l-0.031-0.016l-0.031-0.016c-3.406-1.781-6.531-4.07-9.25-6.805c-7.156-7.133-11.063-16.625-11.063-26.711
			c0.001-2.609,0.251-5.179,0.751-7.694c0.438,0.195,0.875,0.398,1.281,0.609v-0.016c0.906,0.43,1.781,0.891,2.625,1.391
			c13.375,7.711,21.25,21.258,22.313,35.563v-0.016c0.063,1.008,0.125,2.016,0.125,3.023
			C245.328,312.64,245.328,312.781,245.328,312.922z M241.453,259.048c0,0.016-0.031,0.023-0.031,0.039
			c-2.313-0.781-4.531-1.742-6.656-2.875c-0.813-0.5-1.656-0.992-2.5-1.453c-0.969-0.609-1.938-1.266-2.875-1.953
			c7.125-7.064,16.562-10.954,26.593-10.954c10.063,0,19.5,3.891,26.625,10.953c-0.906,0.664-1.813,1.281-2.75,1.875
			c-0.938,0.5-1.844,1.039-2.781,1.602c-2.063,1.102-4.25,2.039-6.5,2.805c0-0.008,0-0.016-0.031-0.031
			C260.953,262.361,250.703,262.212,241.453,259.048z M282.703,306.343c-2.938,2.953-6.313,5.367-9.969,7.188
			c-1.938,0.945-3.938,1.727-5.969,2.336c-0.063-0.93-0.094-1.859-0.125-2.781l0.031-0.156v-0.031v-0.031v-0.109
			c0-0.094,0-0.195,0-0.289c0-3.617,0.469-7.211,1.375-10.703c0.063-0.023,0.094-0.055,0.125-0.078
			c2.188-8.5,6.781-16.023,13.031-21.805c0-0.031,0-0.07,0-0.109c2.031-1.883,4.25-3.578,6.594-5.047
			c0.938-0.509,1.876-1.048,2.782-1.611c0.781-0.414,1.594-0.813,2.438-1.188c0.5,2.516,0.75,5.094,0.75,7.703
			C293.766,289.718,289.86,299.21,282.703,306.343z"/>
	</g>
</g>
<g>
</g>
<g>
</g>
<g>
</g>
<g>
</g>
<g>
</g>
<g>
</g>
<g>
</g>
<g>
</g>
<g>
</g>
<g>
</g>
<g>
</g>
<g>
</g>
<g>
</g>
<g>
</g>
<g>
</g>
</svg>
