<?xml version="1.0" encoding="iso-8859-1"?>
<!-- Generator: Adobe Illustrator 19.0.0, SVG Export Plug-In . SVG Version: 6.00 Build 0)  -->
<svg version="1.1" id="Capa_1" xmlns="http://www.w3.org/2000/svg" xmlns:xlink="http://www.w3.org/1999/xlink" x="0px" y="0px"
	 viewBox="0 0 508 508" style="enable-background:new 0 0 508 508;" xml:space="preserve">
<g>
	<g>
		<path d="M409.1,165.772v16.5h-28.6l-29.1,34.9v-26.7h-52.6l-53.5-106.8c-3-9.3-22.3-22-39.6-6.4l-113.3,113.3H0l46.7,93.4
			c37.8-7.7,62.2,2.7,78.2,12.1l-13.8,18.2c-9.5-5.2-20.3-8.2-31.8-8.2c-36.4,0-66,29.6-66,66c0,36.4,29.6,66,66,66s66-29.6,66-66
			c0-18.9-8-35.9-20.8-48l14.1-18.5c37.2,33.3,38.6,66.5,38.6,66.5H302v57.7h16.5v-57.9h33v-128.9l36.8-44.2h20.9v16.5H508v-49.5
			H409.1z M128.8,371.872c0,27.3-22.2,49.5-49.5,49.5c-27.3,0-49.5-22.2-49.5-49.5s22.2-49.5,49.5-49.5c7.8,0,15.1,1.9,21.7,5.1
			l-35.2,46.4l13.1,10l35.5-46.7C123.3,346.072,128.8,358.372,128.8,371.872z M217.3,88.872c7.5-5.6,12-0.3,13.2,2.1l49.8,99.5
			H115.7L217.3,88.872z M190.2,355.372c-14.5-57.1-72.5-97.5-134.2-89.6l-29.4-58.7h308.2v148.3H190.2z M491.5,198.772h-66v-16.5h66
			V198.772z"/>
	</g>
</g>
<g>
</g>
<g>
</g>
<g>
</g>
<g>
</g>
<g>
</g>
<g>
</g>
<g>
</g>
<g>
</g>
<g>
</g>
<g>
</g>
<g>
</g>
<g>
</g>
<g>
</g>
<g>
</g>
<g>
</g>
</svg>
