<?xml version="1.0" encoding="UTF-8" standalone="no"?><!DOCTYPE svg PUBLIC "-//W3C//DTD SVG 1.1//EN" "http://www.w3.org/Graphics/SVG/1.1/DTD/svg11.dtd"><svg width="100%" height="100%" viewBox="0 0 508 508" version="1.1" xmlns="http://www.w3.org/2000/svg" xmlns:xlink="http://www.w3.org/1999/xlink" xml:space="preserve" style="fill-rule:evenodd;clip-rule:evenodd;stroke-linejoin:round;stroke-miterlimit:1.41421;"><path fill="#DCEDFF" d="M369.289,137.179l50.332,107.447c-6.818,-14.604 -63.321,-18.526 -63.321,1.174c0,22.6 18.4,41 41,41c22.6,0 41,-18.4 41,-41l-16.3,0c0,13.6 -11,24.6 -24.6,24.6c-13.6,0 -25.981,-11.07 -24.6,-24.6c0.658,-6.452 49.051,-0.039 49.051,-0.039l-16.251,-65.561l23.797,24.521l-23.797,-122.821l81.9,0l0,-16.4l-23.4,0l-181.4,-55.2l0,-10.3l-98.3,0l0,11.5l-100.4,54l-22.5,0l0,32.8l-41,0l0,98.3l98.3,0l0,-98.3l-41,0l0,-16.4l106.5,0l0,409.7l-57.3,0l0,16.4l213,0l0,-16.4l-57.4,0l0,-409.7l106.5,0l15.21,80.018m-301.91,-47.118l0,65.5l-65.5,0l0,-65.5l65.5,0Zm81.9,-49.3l-65.8,0l65.8,-35.4l0,35.4Zm16.4,16.4l55.1,0l-55.1,68.8l0,-68.8Zm0,95.1l55.1,68.8l-55.1,68.8l0,-137.6Zm0,163.9l55.1,68.8l-55.1,68.8l0,-137.6Zm65.6,150.7l-55.1,0l55.1,-68.8l0,68.8Zm0,-95l-55.1,-68.8l55.1,-68.8l0,137.6Zm0,-163.9l-55.1,-68.8l55.1,-68.8l0,137.6Zm0,-167.1l-65.5,0l0,-49.2l65.5,0l0,49.2Zm16.4,-0.1l0,-38.1l125.2,38.1l-125.2,0Z" style="fill-rule:nonzero;"/></svg>
