<?xml version="1.0" encoding="iso-8859-1"?>
<!-- Generator: Adobe Illustrator 19.0.0, SVG Export Plug-In . SVG Version: 6.00 Build 0)  -->
<svg version="1.1" id="Capa_1" xmlns="http://www.w3.org/2000/svg" xmlns:xlink="http://www.w3.org/1999/xlink" x="0px" y="0px"
	 viewBox="0 0 508 508" style="enable-background:new 0 0 508 508;" xml:space="preserve">
<g>
	<g>
		<path d="M450.6,301.1V156l38.8-46.2L451,43L253.3,77.9l-59.9,76.2l71.1,123.1l38.7-5.6V301H180.3V170h-86L0,290.1V424h41.7
			c3.9,23.2,24.1,41,48.4,41c24.3,0,44.5-17.8,48.4-41h239.1c3.9,23.2,24.1,41,48.4,41s44.5-17.8,48.4-41H508V301.1H450.6z
			 M273.1,259.5l-60-104L262.4,93l180.2-31.8l27,46.8L351.9,248.1L273.1,259.5z M434.2,175.5v125.6H319.5v-31.8l40.9-5.9
			L434.2,175.5z M90.1,448.6c-18.1,0-32.8-14.7-32.8-32.8S72.1,383,90.1,383s32.8,14.7,32.8,32.8S108.2,448.6,90.1,448.6z
			 M163.9,407.6h-25.3c-3.9-23.2-24.1-41-48.4-41c-24.3,0-44.5,17.8-48.4,41H16.4V301.1h147.5V407.6z M163.9,284.7H25.1l77.2-98.3
			h61.6V284.7z M426.1,448.6c-18.1,0-32.8-14.7-32.8-32.8S408,383,426.1,383c18.1,0,32.8,14.7,32.8,32.8S444.1,448.6,426.1,448.6z
			 M491.7,407.6h-0.1h-17.1c-3.9-23.2-24.1-41-48.4-41s-44.5,17.8-48.4,41H180.3v-90.1h311.4V407.6z"/>
	</g>
</g>
<g>
	<g>
		
			<rect x="301.511" y="156.957" transform="matrix(0.7999 -0.6002 0.6002 0.7999 -37.1407 218.9343)" width="16.401" height="16.401"/>
	</g>
</g>
<g>
	<g>
		<rect x="327.772" y="137.262" transform="matrix(0.7996 -0.6005 0.6005 0.7996 -20.0279 230.9032)" width="16.4" height="16.4"/>
	</g>
</g>
<g>
	<g>
		<rect x="353.913" y="117.538" transform="matrix(0.7996 -0.6005 0.6005 0.7996 -2.9456 242.649)" width="16.4" height="16.4"/>
	</g>
</g>
<g>
</g>
<g>
</g>
<g>
</g>
<g>
</g>
<g>
</g>
<g>
</g>
<g>
</g>
<g>
</g>
<g>
</g>
<g>
</g>
<g>
</g>
<g>
</g>
<g>
</g>
<g>
</g>
<g>
</g>
</svg>
