<?xml version="1.0" encoding="iso-8859-1"?>
<!-- Generator: Adobe Illustrator 19.0.0, SVG Export Plug-In . SVG Version: 6.00 Build 0)  -->
<svg version="1.1" id="Capa_1" xmlns="http://www.w3.org/2000/svg" xmlns:xlink="http://www.w3.org/1999/xlink" x="0px" y="0px"
	 viewBox="0 0 508.015 508.015" style="enable-background:new 0 0 508.015 508.015;" xml:space="preserve">
<g>
	<g>
		<rect x="196.1" y="335.758" width="16.3" height="16.3"/>
	</g>
</g>
<g>
	<g>
		<rect x="261.5" y="335.758" width="16.3" height="16.3"/>
	</g>
</g>
<g>
	<g>
		<rect x="130.8" y="335.758" width="16.3" height="16.3"/>
	</g>
</g>
<g>
	<g>
		<rect x="65.4" y="335.758" width="16.3" height="16.3"/>
	</g>
</g>
<g>
	<g>
		<path fill="#DCEDFF" d="M431.6,392.958l-47.5-75.9v-95.7h-57.2v86.1c-6.8-6.1-15.2-10.3-24.5-11.9v-66.1h-32.7v-45.7l21.2-21.2l-11.5-11.5l-26,26
			v52.4H233l-81.7-114.4H57.2v114.4H40.9v66.1c-23.2,4-40.9,24.2-40.9,48.4c0,27,22,49,49,49h245.2c12.6,0,24-4.8,32.7-12.6v12.6
			H431.6z M343.3,237.758h24.5v84.1l34.3,54.8h-58.8V237.758z M73.6,131.458h69.3l70.1,98.1H73.6V131.458z M57.2,245.858H286v49
			H57.2V245.858z M294.2,376.658H49c-18,0-32.7-14.7-32.7-32.7s14.7-32.7,32.7-32.7h245.2c18,0,32.7,14.7,32.7,32.7
			S312.3,376.658,294.2,376.658z"/>
	</g>
</g>
<g>
	<g>
		<path d="M506.9,302.558c-5.2-16.1-7-25.1-29.6-37.5c-7.2-27.4-47.1-51.9-82.9-23.7l10.7,12.4c26.5-20.4,55.9-0.9,58.4,23.6
			c0,0,21.3,3.9,27.4,28.3c3.2,12.8-5.8,49.4-46.4,39.8l-5.4,15.4C493.1,375.658,513.2,322.458,506.9,302.558z"/>
	</g>
</g>
<g>
</g>
<g>
</g>
<g>
</g>
<g>
</g>
<g>
</g>
<g>
</g>
<g>
</g>
<g>
</g>
<g>
</g>
<g>
</g>
<g>
</g>
<g>
</g>
<g>
</g>
<g>
</g>
<g>
</g>
</svg>
